<svg width="256px" height="256px" viewBox="-2 -2 24.00 24.00" xmlns="http://www.w3.org/2000/svg" fill="#ffffff" stroke="#ffffff" stroke-width="0.0002" transform="rotate(0)"><g id="SVGRepo_bgCarrier" stroke-width="0"></g><g id="SVGRepo_tracerCarrier" stroke-linecap="round" stroke-linejoin="round" stroke="#CCCCCC" stroke-width="0.08"></g><g id="SVGRepo_iconCarrier"> <rect x="0" fill="none" width="20" height="20"></rect> <g> <path d="M3.87 4h13.25C18.37 4 19 4.59 19 5.79v8.42c0 1.19-.63 1.79-1.88 1.79H3.87c-1.25 0-1.88-.6-1.88-1.79V5.79c0-1.2.63-1.79 1.88-1.79zm6.62 8.6l6.74-5.53c.24-.2.43-.66.13-1.07-.29-.41-.82-.42-1.17-.17l-5.7 3.86L4.8 5.83c-.35-.25-.88-.24-1.17.17-.3.41-.11.87.13 1.07z"></path> </g> </g></svg>